# xmcd
#
# Track frame offsets:
#	150
#	11395
#	27785
#	42914
#	53941
#	68331
#	87059
#	122990
#	141655
#	167892
#	200195
#	217506
#	244409
#	262809
#	289230
#
# Disc length: 4094 seconds
#
# Revision: 1
# Processed by: cddbd v1.4PL0 Copyright (c) Steve Scherf et al.
# Submitted via: audiograbber 1.81.03
#
DISCID=d60ffc0f
DTITLE=Various Artist - Earwig Music - CD 1
DYEAR=1999
DGENRE=Blues
TTITLE0=The Jelly Roll Kings - Jelly Roll Stroll
TTITLE1=Floyd Jones - Mr. Freddy Blues
TTITLE2=Jim Brewer - Long Ways From Home
TTITLE3=Big Jack Johnson - You Can Have My Woman
TTITLE4=Frank Frost - Gonna Put Her Down
TTITLE5=Sunnyland Slim - Patience Like Job
TTITLE6=Big Jack Johnson - Daddy, When Is Mama Comin Home?
TTITLE7=Little Brother Montgomery - Hard, Oh Lord
TTITLE8=Louis Myers - Iggle Tail
TTITLE9=Jimmy Dawkins - Beetin Knockin Ringin
TTITLE10=David Honeyboy Edwards - The Army Blues
TTITLE11=Mad Dog Lester Davenport - Slow Down Baby
TTITLE12=John Primer - Lawhorn Special
TTITLE13=H-Bomb Ferguson - Leavin' You Tomorrow
TTITLE14=Aron Burton - Trouble
EXTD=
EXTT0=
EXTT1=
EXTT2=
EXTT3=
EXTT4=
EXTT5=
EXTT6=
EXTT7=
EXTT8=
EXTT9=
EXTT10=
EXTT11=
EXTT12=
EXTT13=
EXTT14=
PLAYORDER=
